<?xml version="1.0" encoding="UTF-8"?>
<svg version="1.1" xmlns="http://www.w3.org/2000/svg" width="591" height="425">
<path d="M0 0 C195.03 0 390.06 0 591 0 C591 140.25 591 280.5 591 425 C395.97 425 200.94 425 0 425 C0 284.75 0 144.5 0 0 Z " fill="#0B0B0C" transform="translate(0,0)"/>
<path d="M0 0 C37.95 0 75.9 0 115 0 C115 13.53 115 27.06 115 41 C77.38 41 39.76 41 1 41 C1 53.87 1 66.74 1 80 C36.31 80 71.62 80 108 80 C108 92.87 108 105.74 108 119 C120.87 119 133.74 119 147 119 C147 132.2 147 145.4 147 159 C133.8 159 120.6 159 107 159 C107 146.13 107 133.26 107 120 C71.69 120 36.38 120 0 120 C0 107.13 0 94.26 0 81 C-12.87 81 -25.74 81 -39 81 C-39 67.47 -39 53.94 -39 40 C-26.13 40 -13.26 40 0 40 C0 26.8 0 13.6 0 0 Z " fill="#FBFBFB" transform="translate(327,112)"/>
<path d="M0 0 C39.6 0 79.2 0 120 0 C120 13.2 120 26.4 120 40 C106.8 40 93.6 40 80 40 C80 92.14 80 144.28 80 198 C66.47 198 52.94 198 39 198 C39 145.86 39 93.72 39 40 C26.13 40 13.26 40 0 40 C0 26.8 0 13.6 0 0 Z " fill="#F9F9F8" transform="translate(125,113)"/>
<path d="M0 0 C37.95 0 75.9 0 115 0 C115 12.87 115 25.74 115 39 C77.05 39 39.1 39 0 39 C0 26.13 0 13.26 0 0 Z " fill="#FBFBFB" transform="translate(319,271)"/>
<path d="M0 0 C34.98 0 69.96 0 106 0 C106 12.54 106 25.08 106 38 C71.02 38 36.04 38 0 38 C0 25.46 0 12.92 0 0 Z " fill="#FDFDFD" transform="translate(328,193)"/>
<path d="M0 0 C37.95 0 75.9 0 115 0 C115 0.33 115 0.66 115 1 C77.38 1 39.76 1 1 1 C1 13.87 1 26.74 1 40 C38.62 40 76.24 40 115 40 C115 40.33 115 40.66 115 41 C77.38 41 39.76 41 1 41 C1 53.87 1 66.74 1 80 C36.31 80 71.62 80 108 80 C108 92.87 108 105.74 108 119 C120.87 119 133.74 119 147 119 C147 132.2 147 145.4 147 159 C133.8 159 120.6 159 107 159 C107 146.13 107 133.26 107 120 C71.69 120 36.38 120 0 120 C0 107.13 0 94.26 0 81 C-12.87 81 -25.74 81 -39 81 C-39 67.47 -39 53.94 -39 40 C-26.13 40 -13.26 40 0 40 C0 26.8 0 13.6 0 0 Z M1 81 C1 93.54 1 106.08 1 119 C35.98 119 70.96 119 107 119 C107 106.46 107 93.92 107 81 C72.02 81 37.04 81 1 81 Z " fill="#F9F9F9" transform="translate(327,112)"/>
<path d="M0 0 C12.87 0 25.74 0 39 0 C39 12.87 39 25.74 39 39 C26.13 39 13.26 39 0 39 C0 26.13 0 13.26 0 0 Z " fill="#FBFBFB" transform="translate(288,153)"/>
<path d="M0 0 C37.95 0 75.9 0 115 0 C115 0.33 115 0.66 115 1 C77.38 1 39.76 1 1 1 C1 13.87 1 26.74 1 40 C38.62 40 76.24 40 115 40 C115 40.33 115 40.66 115 41 C77.38 41 39.76 41 1 41 C1 53.87 1 66.74 1 80 C36.31 80 71.62 80 108 80 C108 92.87 108 105.74 108 119 C120.87 119 133.74 119 147 119 C147 119.33 147 119.66 147 120 C98.49 120 49.98 120 0 120 C0 107.13 0 94.26 0 81 C-12.87 81 -25.74 81 -39 81 C-39 80.67 -39 80.34 -39 80 C-26.13 80 -13.26 80 0 80 C0 67.13 0 54.26 0 41 C-12.87 41 -25.74 41 -39 41 C-39 40.67 -39 40.34 -39 40 C-26.13 40 -13.26 40 0 40 C0 26.8 0 13.6 0 0 Z M1 81 C1 93.54 1 106.08 1 119 C35.98 119 70.96 119 107 119 C107 106.46 107 93.92 107 81 C72.02 81 37.04 81 1 81 Z " fill="#888888" transform="translate(327,112)"/>
</svg>
