<?xml version="1.0" encoding="UTF-8"?>
<svg version="1.1" xmlns="http://www.w3.org/2000/svg" width="648" height="270">
<path d="M0 0 C213.84 0 427.68 0 648 0 C648 89.1 648 178.2 648 270 C434.16 270 220.32 270 0 270 C0 180.9 0 91.8 0 0 Z " fill="#0C0C0D" transform="translate(0,0)"/>
<path d="M0 0 C5.61 0 11.22 0 17 0 C17 1.65 17 3.3 17 5 C18.32 5 19.64 5 21 5 C21 3.68 21 2.36 21 1 C24.63 1 28.26 1 32 1 C32 19.48 32 37.96 32 57 C28.7 57 25.4 57 22 57 C22 59.97 22 62.94 22 66 C14.74 66 7.48 66 0 66 C0 62.7 0 59.4 0 56 C6.93 56 13.86 56 21 56 C21 53.03 21 50.06 21 47 C14.07 47 7.14 47 0 47 C0 44.03 0 41.06 0 38 C-3.3 38 -6.6 38 -10 38 C-10 28.76 -10 19.52 -10 10 C-6.7 10 -3.4 10 0 10 C0 6.7 0 3.4 0 0 Z " fill="#E9E9E9" transform="translate(323,167)"/>
<path d="M0 0 C3.96 0 7.92 0 12 0 C12 1.65 12 3.3 12 5 C12.99 5 13.98 5 15 5 C15 3.35 15 1.7 15 0 C20.61 0 26.22 0 32 0 C32 2.97 32 5.94 32 9 C35.3 9 38.6 9 42 9 C42 18.57 42 28.14 42 38 C38.7 38 35.4 38 32 38 C32 41.3 32 44.6 32 48 C25.4 48 18.8 48 12 48 C12 53.94 12 59.88 12 66 C8.04 66 4.08 66 0 66 C0 44.22 0 22.44 0 0 Z " fill="#EFF0F0" transform="translate(336,68)"/>
<path d="M0 0 C7.26 0 14.52 0 22 0 C22 3.3 22 6.6 22 10 C25.63 10 29.26 10 33 10 C33 16.27 33 22.54 33 29 C22.44 29 11.88 29 1 29 C1 31.64 1 34.28 1 37 C8.26 37 15.52 37 23 37 C23 40.63 23 44.26 23 48 C15.41 48 7.82 48 0 48 C0 44.7 0 41.4 0 38 C-3.3 38 -6.6 38 -10 38 C-10 28.43 -10 18.86 -10 9 C-6.7 9 -3.4 9 0 9 C0 6.03 0 3.06 0 0 Z " fill="#F3F3F3" transform="translate(447,68)"/>
<path d="M0 0 C7.59 0 15.18 0 23 0 C23 2.97 23 5.94 23 9 C26.3 9 29.6 9 33 9 C33 15.6 33 22.2 33 29 C22.44 29 11.88 29 1 29 C1 31.97 1 34.94 1 38 C8.26 38 15.52 38 23 38 C23 41.3 23 44.6 23 48 C15.41 48 7.82 48 0 48 C0 44.7 0 41.4 0 38 C-3.3 38 -6.6 38 -10 38 C-10 28.43 -10 18.86 -10 9 C-6.7 9 -3.4 9 0 9 C0 6.03 0 3.06 0 0 Z " fill="#ADADAD" transform="translate(499,68)"/>
<path d="M0 0 C7.92 0 15.84 0 24 0 C24 3.3 24 6.6 24 10 C26.97 10 29.94 10 33 10 C33 12.97 33 15.94 33 19 C29.7 19 26.4 19 23 19 C23 16.03 23 13.06 23 10 C15.74 10 8.48 10 1 10 C1 15.94 1 21.88 1 28 C8.59 28 16.18 28 24 28 C24 31.3 24 34.6 24 38 C27.3 38 30.6 38 34 38 C34.02683987 40.97922593 34.04676037 43.95821295 34.0625 46.9375 C34.07087891 47.78763672 34.07925781 48.63777344 34.08789062 49.51367188 C34.09111328 50.32255859 34.09433594 51.13144531 34.09765625 51.96484375 C34.10289307 52.7137085 34.10812988 53.46257324 34.11352539 54.23413086 C34 56 34 56 33 57 C29.99668982 57.14193337 27.00782866 57.04236378 24 57 C24 59.97 24 62.94 24 66 C16.08 66 8.16 66 0 66 C0 63.03 0 60.06 0 57 C-3.3 57 -6.6 57 -10 57 C-10 53.7 -10 50.4 -10 47 C-6.37 47 -2.74 47 1 47 C1 49.97 1 52.94 1 56 C7.93 56 14.86 56 22 56 C22 50.39 22 44.78 22 39 C20.49566406 39.01160156 18.99132812 39.02320313 17.44140625 39.03515625 C15.48177207 39.04453249 13.52213655 39.05363287 11.5625 39.0625 C10.07266602 39.07506836 10.07266602 39.07506836 8.55273438 39.08789062 C7.60849609 39.09111328 6.66425781 39.09433594 5.69140625 39.09765625 C4.81685791 39.10289307 3.94230957 39.10812988 3.04125977 39.11352539 C1 39 1 39 0 38 C-0.14193337 34.99668982 -0.04236378 32.00782866 0 29 C-3.3 29 -6.6 29 -10 29 C-10 22.73 -10 16.46 -10 10 C-6.7 10 -3.4 10 0 10 C0 6.7 0 3.4 0 0 Z " fill="#8A8A8A" transform="translate(179,148)"/>
<path d="M0 0 C7.59 0 15.18 0 23 0 C23 2.97 23 5.94 23 9 C26.3 9 29.6 9 33 9 C33 21.54 33 34.08 33 47 C29.37 47 25.74 47 22 47 C22 45.35 22 43.7 22 42 C20.68 42 19.36 42 18 42 C18 43.65 18 45.3 18 47 C12.06 47 6.12 47 0 47 C0 44.03 0 41.06 0 38 C-3.3 38 -6.6 38 -10 38 C-10 34.7 -10 31.4 -10 28 C-6.7 28 -3.4 28 0 28 C0 25.03 0 22.06 0 19 C7.26 19 14.52 19 22 19 C22 16.03 22 13.06 22 10 C14.74 10 7.48 10 0 10 C0 6.7 0 3.4 0 0 Z " fill="#F9FAFA" transform="translate(138,68)"/>
<path d="M0 0 C3.96 0 7.92 0 12 0 C12 12.21 12 24.42 12 37 C18.27 37 24.54 37 31 37 C31 24.79 31 12.58 31 0 C34.96 0 38.92 0 43 0 C43 15.84 43 31.68 43 48 C39.04 48 35.08 48 31 48 C31 46.02 31 44.04 31 42 C29.68 42 28.36 42 27 42 C27 43.65 27 45.3 27 47 C21.72 47 16.44 47 11 47 C11 44.03 11 41.06 11 38 C7.37 38 3.74 38 0 38 C0 25.46 0 12.92 0 0 Z " fill="#EAEBEB" transform="translate(231,68)"/>
<path d="M0 0 C5.28 0 10.56 0 16 0 C16 3.3 16 6.6 16 10 C19.63 10 23.26 10 27 10 C27 22.21 27 34.42 27 47 C23.04 47 19.08 47 15 47 C15 34.79 15 22.58 15 10 C9.06 10 3.12 10 -3 10 C-3 22.54 -3 35.08 -3 48 C-6.96 48 -10.92 48 -15 48 C-15 32.49 -15 16.98 -15 1 C-11.37 1 -7.74 1 -4 1 C-4 2.32 -4 3.64 -4 5 C-2.68 5 -1.36 5 0 5 C0 3.35 0 1.7 0 0 Z " fill="#EBECEC" transform="translate(299,68)"/>
<path d="M0 0 C15.84 0 31.68 0 48 0 C48 3.3 48 6.6 48 10 C42.06 10 36.12 10 30 10 C30 27.49 30 44.98 30 63 C25.71 63 21.42 63 17 63 C17 45.51 17 28.02 17 10 C11.39 10 5.78 10 0 10 C0 6.7 0 3.4 0 0 Z " fill="#EAEBEA" transform="translate(78,53)"/>
<path d="M0 0 C3.96 0 7.92 0 12 0 C12 1.65 12 3.3 12 5 C13.32 5 14.64 5 16 5 C16 3.35 16 1.7 16 0 C21.28 0 26.56 0 32 0 C32 3.3 32 6.6 32 10 C35.3 10 38.6 10 42 10 C42 22.21 42 34.42 42 47 C38.37 47 34.74 47 31 47 C31 34.79 31 22.58 31 10 C24.73 10 18.46 10 12 10 C12 22.21 12 34.42 12 47 C8.04 47 4.08 47 0 47 C0 31.49 0 15.98 0 0 Z " fill="#ECEDED" transform="translate(261,167)"/>
<path d="M0 0 C3.63 0 7.26 0 11 0 C11 6.27 11 12.54 11 19 C17.6 19 24.2 19 31 19 C31 21.97 31 24.94 31 28 C24.4 28 17.8 28 11 28 C11 39.88 11 51.76 11 64 C7.37 64 3.74 64 0 64 C0 42.88 0 21.76 0 0 Z " fill="#FBFCFC" transform="translate(366,149)"/>
<path d="M0 0 C7.26 0 14.52 0 22 0 C22 12.21 22 24.42 22 37 C24.97 37 27.94 37 31 37 C31 40.3 31 43.6 31 47 C20.77 47 10.54 47 0 47 C0 43.7 0 40.4 0 37 C3.3 37 6.6 37 10 37 C10 28.42 10 19.84 10 11 C6.7 11 3.4 11 0 11 C0 7.37 0 3.74 0 0 Z " fill="#EEEEEE" transform="translate(221,167)"/>
<path d="M0 0 C3.96 0 7.92 0 12 0 C12 1.65 12 3.3 12 5 C13.32 5 14.64 5 16 5 C16 3.35 16 1.7 16 0 C20.95 0 25.9 0 31 0 C31 2.97 31 5.94 31 9 C34.3 9 37.6 9 41 9 C41 12.3 41 15.6 41 19 C37.37 19 33.74 19 30 19 C30 16.03 30 13.06 30 10 C24.06 10 18.12 10 12 10 C12 22.21 12 34.42 12 47 C8.04 47 4.08 47 0 47 C0 31.49 0 15.98 0 0 Z " fill="#F3F3F3" transform="translate(388,68)"/>
<path d="M0 0 C3.96 0 7.92 0 12 0 C12 4.95 12 9.9 12 15 C15.3 15 18.6 15 22 15 C22 18.3 22 21.6 22 25 C18.37 25 14.74 25 11 25 C11 34.24 11 43.48 11 53 C7.37 53 3.74 53 0 53 C0 43.76 0 34.52 0 25 C-3.3 25 -6.6 25 -10 25 C-10 21.7 -10 18.4 -10 15 C-6.7 15 -3.4 15 0 15 C0 10.05 0 5.1 0 0 Z " fill="#F3F3F3" transform="translate(549,53)"/>
<path d="M0 0 C4.29 0 8.58 0 13 0 C13 1.65 13 3.3 13 5 C13.99 5 14.98 5 16 5 C16 3.35 16 1.7 16 0 C20.95 0 25.9 0 31 0 C31 3.3 31 6.6 31 10 C24.73 10 18.46 10 12 10 C12 22.54 12 35.08 12 48 C8.04 48 4.08 48 0 48 C0 32.16 0 16.32 0 0 Z " fill="#F0F1F1" transform="translate(181,68)"/>
<path d="M0 0 C2.97 0 5.94 0 9 0 C9 2.97 9 5.94 9 9 C16.59 9 24.18 9 32 9 C32 6.03 32 3.06 32 0 C35.3 0 38.6 0 42 0 C42 6.27 42 12.54 42 19 C31.11 19 20.22 19 9 19 C9 21.64 9 24.28 9 27 C6.03 27 3.06 27 0 27 C0 18.09 0 9.18 0 0 Z " fill="#F6F7F7" transform="translate(490,78)"/>
<path d="M0 0 C6.27 0 12.54 0 19 0 C19 9.24 19 18.48 19 28 C12.73 28 6.46 28 0 28 C0 18.76 0 9.52 0 0 Z " fill="#121213" transform="translate(348,78)"/>
<path d="M0 0 C3.3 0 6.6 0 10 0 C10 5.94 10 11.88 10 18 C7.03 18 4.06 18 1 18 C1 20.97 1 23.94 1 27 C-6.92 27 -14.84 27 -23 27 C-23 24.03 -23 21.06 -23 18 C-26.3 18 -29.6 18 -33 18 C-33 14.7 -33 11.4 -33 8 C-29.37 8 -25.74 8 -22 8 C-22 10.97 -22 13.94 -22 17 C-14.74 17 -7.48 17 0 17 C0 11.39 0 5.78 0 0 Z " fill="#DADBDC" transform="translate(202,187)"/>
<path d="M0 0 C6.27 0 12.54 0 19 0 C19 8.58 19 17.16 19 26 C12.73 26 6.46 26 0 26 C0 17.42 0 8.84 0 0 Z " fill="#0C0C0D" transform="translate(324,178)"/>
<path d="M0 0 C3.63 0 7.26 0 11 0 C11 12.21 11 24.42 11 37 C7.37 37 3.74 37 0 37 C0 24.79 0 12.58 0 0 Z " fill="#F7F7F7" transform="translate(232,68)"/>
<path d="M0 0 C3.63 0 7.26 0 11 0 C11 11.88 11 23.76 11 36 C7.37 36 3.74 36 0 36 C0 24.12 0 12.24 0 0 Z " fill="#F8F8F9" transform="translate(397,177)"/>
<path d="M0 0 C3.3 0 6.6 0 10 0 C10 11.88 10 23.76 10 36 C6.7 36 3.4 36 0 36 C0 24.12 0 12.24 0 0 Z " fill="#FCFDFD" transform="translate(315,78)"/>
<path d="M0 0 C3.3 0 6.6 0 10 0 C10 11.55 10 23.1 10 35 C6.7 35 3.4 35 0 35 C0 23.45 0 11.9 0 0 Z " fill="#FCFCFC" transform="translate(292,178)"/>
<path d="M0 0 C3.3 0 6.6 0 10 0 C10 9.24 10 18.48 10 28 C6.7 28 3.4 28 0 28 C0 18.76 0 9.52 0 0 Z " fill="#F7F7F7" transform="translate(368,78)"/>
<path d="M0 0 C3.3 0 6.6 0 10 0 C10 8.91 10 17.82 10 27 C6.7 27 3.4 27 0 27 C0 18.09 0 9.18 0 0 Z " fill="#F8F7F8" transform="translate(313,177)"/>
<path d="M0 0 C7.59 0 15.18 0 23 0 C23 2.97 23 5.94 23 9 C26.3 9 29.6 9 33 9 C33 9.33 33 9.66 33 10 C22.11 10 11.22 10 0 10 C0 6.7 0 3.4 0 0 Z " fill="#E7E7E7" transform="translate(138,68)"/>
<path d="M0 0 C7.26 0 14.52 0 22 0 C22 2.97 22 5.94 22 9 C14.74 9 7.48 9 0 9 C0 6.03 0 3.06 0 0 Z " fill="#FBFCFB" transform="translate(180,177)"/>
<path d="M0 0 C7.26 0 14.52 0 22 0 C22 2.97 22 5.94 22 9 C14.74 9 7.48 9 0 9 C0 6.03 0 3.06 0 0 Z " fill="#F9FAFA" transform="translate(180,149)"/>
<path d="M0 0 C6.93 0 13.86 0 21 0 C21 2.97 21 5.94 21 9 C14.07 9 7.14 9 0 9 C0 6.03 0 3.06 0 0 Z " fill="#FAFBFB" transform="translate(500,106)"/>
<path d="M0 0 C6.93 0 13.86 0 21 0 C21 2.97 21 5.94 21 9 C14.07 9 7.14 9 0 9 C0 6.03 0 3.06 0 0 Z " fill="#FAFBFB" transform="translate(448,106)"/>
<path d="M0 0 C6.93 0 13.86 0 21 0 C21 2.97 21 5.94 21 9 C14.07 9 7.14 9 0 9 C0 6.03 0 3.06 0 0 Z " fill="#131314" transform="translate(500,78)"/>
<path d="M0 0 C6.93 0 13.86 0 21 0 C21 2.97 21 5.94 21 9 C14.07 9 7.14 9 0 9 C0 6.03 0 3.06 0 0 Z " fill="#1A1B1B" transform="translate(448,78)"/>
<path d="M0 0 C6.93 0 13.86 0 21 0 C21 2.97 21 5.94 21 9 C14.07 9 7.14 9 0 9 C0 6.03 0 3.06 0 0 Z " fill="#F6F6F6" transform="translate(448,68)"/>
<path d="M0 0 C3.3 0 6.6 0 10 0 C10 5.94 10 11.88 10 18 C6.7 18 3.4 18 0 18 C0 12.06 0 6.12 0 0 Z " fill="#F8F8F9" transform="translate(169,158)"/>
<path d="M0 0 C3.3 0 6.6 0 10 0 C10 5.61 10 11.22 10 17 C6.7 17 3.4 17 0 17 C0 11.39 0 5.78 0 0 Z " fill="#FBFBFB" transform="translate(202,187)"/>
<path d="M0 0 C6.93 0 13.86 0 21 0 C21 2.64 21 5.28 21 8 C14.07 8 7.14 8 0 8 C0 5.36 0 2.72 0 0 Z " fill="#0C0D0D" transform="translate(139,97)"/>
<path d="M0 0 C6.93 0 13.86 0 21 0 C21 2.64 21 5.28 21 8 C14.07 8 7.14 8 0 8 C0 5.36 0 2.72 0 0 Z " fill="#FDFDFD" transform="translate(500,69)"/>
<path d="M0 0 C6.6 0 13.2 0 20 0 C20 2.64 20 5.28 20 8 C13.4 8 6.8 8 0 8 C0 5.36 0 2.72 0 0 Z " fill="#FBFCFC" transform="translate(324,224)"/>
<path d="M0 0 C10.56 0 21.12 0 32 0 C32 0.33 32 0.66 32 1 C25.07 1 18.14 1 11 1 C11 3.64 11 6.28 11 9 C17.93 9 24.86 9 32 9 C32 9.33 32 9.66 32 10 C21.44 10 10.88 10 0 10 C0 6.7 0 3.4 0 0 Z " fill="#C8C8C8" transform="translate(128,96)"/>
<path d="M0 0 C0.33 0 0.66 0 1 0 C1 2.97 1 5.94 1 9 C7.93 9 14.86 9 22 9 C22 9.33 22 9.66 22 10 C11.77 10 1.54 10 -9 10 C-9 18.91 -9 27.82 -9 37 C-6.03 37 -3.06 37 0 37 C0 34.36 0 31.72 0 29 C0.33 29 0.66 29 1 29 C1 31.64 1 34.28 1 37 C8.26 37 15.52 37 23 37 C23 40.63 23 44.26 23 48 C15.41 48 7.82 48 0 48 C0 44.7 0 41.4 0 38 C-3.3 38 -6.6 38 -10 38 C-10 28.43 -10 18.86 -10 9 C-6.7 9 -3.4 9 0 9 C0 6.03 0 3.06 0 0 Z M1 38 C1 40.97 1 43.94 1 47 C7.93 47 14.86 47 22 47 C22 44.03 22 41.06 22 38 C15.07 38 8.14 38 1 38 Z " fill="#909191" transform="translate(447,68)"/>
<path d="M0 0 C0.33 0 0.66 0 1 0 C1 2.97 1 5.94 1 9 C4.3 9 7.6 9 11 9 C11 12.3 11 15.6 11 19 C7.37 19 3.74 19 0 19 C0 12.73 0 6.46 0 0 Z " fill="#D7D6D6" transform="translate(418,68)"/>
<path d="M0 0 C3.63 0 7.26 0 11 0 C11 2.97 11 5.94 11 9 C7.37 9 3.74 9 0 9 C0 6.03 0 3.06 0 0 Z " fill="#F8F9F9" transform="translate(232,149)"/>
<path d="M0 0 C3.3 0 6.6 0 10 0 C10 2.97 10 5.94 10 9 C6.7 9 3.4 9 0 9 C0 6.03 0 3.06 0 0 Z " fill="#F1F1F0" transform="translate(202,158)"/>
<path d="M0 0 C3.3 0 6.6 0 10 0 C10 2.97 10 5.94 10 9 C6.7 9 3.4 9 0 9 C0 6.03 0 3.06 0 0 Z " fill="#F4F6F6" transform="translate(560,106)"/>
<path d="M0 0 C3.3 0 6.6 0 10 0 C10 2.97 10 5.94 10 9 C6.7 9 3.4 9 0 9 C0 6.03 0 3.06 0 0 Z " fill="#F1F1F2" transform="translate(212,78)"/>
<path d="M0 0 C2.97 0 5.94 0 9 0 C9 2.97 9 5.94 9 9 C6.03 9 3.06 9 0 9 C0 6.03 0 3.06 0 0 Z " fill="#F8F9FA" transform="translate(170,195)"/>
</svg>
